<svg width="26" height="26" viewBox="0 0 26 26" xmlns="http://www.w3.org/2000/svg">
  <path d="M13 24.375C9.98316 24.375 7.08989 23.1766 4.95666 21.0433C2.82343 18.9101 1.625 16.0168 1.625 13C1.625 9.98316 2.82343 7.08989 4.95666 4.95666C7.08989 2.82343 9.98316 1.625 13 1.625C16.0168 1.625 18.9101 2.82343 21.0433 4.95666C23.1766 7.08989 24.375 9.98316 24.375 13C24.375 16.0168 23.1766 18.9101 21.0433 21.0433C18.9101 23.1766 16.0168 24.375 13 24.375ZM13 26C16.4478 26 19.7544 24.6304 22.1924 22.1924C24.6304 19.7544 26 16.4478 26 13C26 9.55219 24.6304 6.24558 22.1924 3.80761C19.7544 1.36964 16.4478 0 13 0C9.55219 0 6.24558 1.36964 3.80761 3.80761C1.36964 6.24558 0 9.55219 0 13C0 16.4478 1.36964 19.7544 3.80761 22.1924C6.24558 24.6304 9.55219 26 13 26Z" fill="#000000"/>
  <path d="M6.5 17.0625C6.5 16.847 6.5856 16.6403 6.73798 16.488C6.89035 16.3356 7.09701 16.25 7.3125 16.25H18.6875C18.903 16.25 19.1097 16.3356 19.262 16.488C19.4144 16.6403 19.5 16.847 19.5 17.0625C19.5 17.278 19.4144 17.4847 19.262 17.637C19.1097 17.7894 18.903 17.875 18.6875 17.875H7.3125C7.09701 17.875 6.89035 17.7894 6.73798 17.637C6.5856 17.4847 6.5 17.278 6.5 17.0625ZM6.5 10.5625C6.5 10.347 6.5856 10.1403 6.73798 9.98798C6.89035 9.8356 7.09701 9.75 7.3125 9.75H10.5625C10.778 9.75 10.9847 9.8356 11.137 9.98798C11.2894 10.1403 11.375 10.347 11.375 10.5625C11.375 10.778 11.2894 10.9847 11.137 11.137C10.9847 11.2894 10.778 11.375 10.5625 11.375H7.3125C7.09701 11.375 6.89035 11.2894 6.73798 11.137C6.5856 10.9847 6.5 10.778 6.5 10.5625ZM14.625 10.5625C14.625 10.347 14.7106 10.1403 14.863 9.98798C15.0153 9.8356 15.222 9.75 15.4375 9.75H18.6875C18.903 9.75 19.1097 9.8356 19.262 9.98798C19.4144 10.1403 19.5 10.347 19.5 10.5625C19.5 10.778 19.4144 10.9847 19.262 11.137C19.1097 11.2894 18.903 11.375 18.6875 11.375H15.4375C15.222 11.375 15.0153 11.2894 14.863 11.137C14.7106 10.9847 14.625 10.778 14.625 10.5625Z" fill="#000000"/>
</svg>
