<svg width="26" height="26" viewBox="0 0 26 26" xmlns="http://www.w3.org/2000/svg">
  <path d="M5.05444 12.9175C5.24527 12.8174 5.46804 12.7972 5.67375 12.8614C5.87945 12.9255 6.05124 13.0688 6.15133 13.2596C6.61513 14.144 7.30361 14.8907 8.14754 15.4246C8.99146 15.9584 9.96107 16.2607 10.9589 16.301C11.9567 16.3417 12.9476 16.1191 13.832 15.6554C14.7165 15.1917 15.4632 14.5033 15.9972 13.6595C16.0539 13.5686 16.128 13.4897 16.2153 13.4276C16.3026 13.3654 16.4013 13.3211 16.5058 13.2973C16.6102 13.2734 16.7184 13.2705 16.824 13.2886C16.9296 13.3067 17.0306 13.3455 17.1211 13.4028C17.2117 13.4601 17.29 13.5348 17.3516 13.6225C17.4132 13.7101 17.4568 13.8091 17.4799 13.9138C17.5031 14.0184 17.5053 14.1266 17.4865 14.232C17.4677 14.3375 17.4282 14.4383 17.3703 14.5284C16.6838 15.6133 15.7238 16.4983 14.5867 17.0945C13.4497 17.6907 12.1757 17.977 10.8929 17.9246C9.61013 17.8728 8.36358 17.4841 7.27862 16.7977C6.19367 16.1113 5.30855 15.1513 4.71227 14.0144C4.61219 13.8235 4.59202 13.6007 4.65619 13.395C4.72035 13.1893 4.86361 13.0175 5.05444 12.9175ZM9.12749 8.53744C8.58691 9.76957 7.48153 10.4771 6.66011 10.1167C5.83868 9.75631 5.61075 8.46383 6.15133 7.2317C6.69191 5.99957 7.7973 5.29206 8.61872 5.65245C9.44014 6.01283 9.66807 7.30531 9.12749 8.53744ZM12.3142 7.30962C12.4107 7.26402 12.5152 7.23786 12.6218 7.23265C12.7284 7.22743 12.8349 7.24326 12.9354 7.27923C13.0359 7.3152 13.1282 7.3706 13.2073 7.44228C13.2863 7.51396 13.3505 7.6005 13.3961 7.69697C13.5078 7.94491 13.6843 8.15812 13.907 8.31412C14.1297 8.47013 14.3904 8.56315 14.6616 8.58338C15.2112 8.61966 15.7278 8.34434 16.0326 7.87101C16.1495 7.68998 16.3335 7.56281 16.5442 7.51747C16.7549 7.47212 16.9749 7.51233 17.156 7.62923C17.337 7.74614 17.4642 7.93017 17.5095 8.14084C17.5548 8.35151 17.5146 8.57157 17.3977 8.7526C17.0973 9.22706 16.6749 9.61212 16.1748 9.86758C15.6746 10.123 15.1151 10.2395 14.5545 10.2048C13.3709 10.1267 12.3999 9.39166 11.9269 8.39146C11.8813 8.29499 11.8551 8.19048 11.8499 8.08391C11.8447 7.97733 11.8605 7.87077 11.8965 7.77031C11.9325 7.66985 11.9879 7.57746 12.0596 7.49842C12.1312 7.41937 12.2178 7.35522 12.3142 7.30962Z" fill="#000000"/>
  <path d="M13 0C16.4478 0 19.7544 1.36964 22.1924 3.80762C24.6304 6.24559 26 9.55219 26 13C26 13.6813 25.9454 14.3569 25.8408 15.0215C25.3643 14.6902 24.8532 14.4051 24.3125 14.1758C24.3529 13.7869 24.375 13.3946 24.375 13C24.375 9.98316 23.1762 7.09026 21.043 4.95703C18.9097 2.8238 16.0168 1.625 13 1.625C9.98316 1.625 7.09026 2.8238 4.95703 4.95703C2.8238 7.09026 1.625 9.98316 1.625 13C1.625 16.0168 2.8238 18.9097 4.95703 21.043C7.05062 23.1366 9.87597 24.3265 12.832 24.3701C12.9958 24.9364 13.2156 25.4783 13.4873 25.9893C13.3252 25.9953 13.1628 26 13 26C9.55219 26 6.24559 24.6304 3.80762 22.1924C1.36964 19.7544 0 16.4478 0 13C0 9.55219 1.36964 6.24559 3.80762 3.80762C6.24559 1.36964 9.55219 0 13 0Z" fill="#000000"/>
  <path d="M26 19.5C26 21.2239 25.3152 22.8772 24.0962 24.0962C22.8772 25.3152 21.2239 26 19.5 26C17.7761 26 16.1228 25.3152 14.9038 24.0962C13.6848 22.8772 13 21.2239 13 19.5C13 17.7761 13.6848 16.1228 14.9038 14.9038C16.1228 13.6848 17.7761 13 19.5 13C21.2239 13 22.8772 13.6848 24.0962 14.9038C25.3152 16.1228 26 17.7761 26 19.5ZM19.5 16.25C19.3973 16.2501 19.2958 16.2716 19.2019 16.3133C19.1081 16.355 19.024 16.4159 18.9551 16.4921C18.8862 16.5682 18.8341 16.658 18.802 16.7555C18.7699 16.8531 18.7586 16.9563 18.7688 17.0584L19.0532 19.9079C19.0627 20.0198 19.1139 20.1241 19.1967 20.2001C19.2794 20.2761 19.3877 20.3182 19.5 20.3182C19.6124 20.3182 19.7206 20.2761 19.8034 20.2001C19.8861 20.1241 19.9373 20.0198 19.9469 19.9079L20.2313 17.0584C20.2415 16.9563 20.2302 16.8531 20.1981 16.7555C20.166 16.658 20.1138 16.5682 20.0449 16.4921C19.976 16.4159 19.892 16.355 19.7981 16.3133C19.7043 16.2716 19.6027 16.2501 19.5 16.25ZM19.5017 21.125C19.2862 21.125 19.0795 21.2106 18.9271 21.363C18.7748 21.5154 18.6892 21.722 18.6892 21.9375C18.6892 22.153 18.7748 22.3597 18.9271 22.512C19.0795 22.6644 19.2862 22.75 19.5017 22.75C19.7171 22.75 19.9238 22.6644 20.0762 22.512C20.2285 22.3597 20.3142 22.153 20.3142 21.9375C20.3142 21.722 20.2285 21.5154 20.0762 21.363C19.9238 21.2106 19.7171 21.125 19.5017 21.125Z" fill="#000000"/>
</svg>
